<?xml version="1.0" encoding="utf-8"?>
<!-- Generator: Adobe Illustrator 24.3.0, SVG Export Plug-In . SVG Version: 6.00 Build 0)  -->
<svg version="1.1" id="Layer_1" xmlns="http://www.w3.org/2000/svg" xmlns:xlink="http://www.w3.org/1999/xlink" x="0px" y="0px"
	 viewBox="0 0 220 610" style="enable-background:new 0 0 220 610;" xml:space="preserve">
<style type="text/css">
	.st0{fill:#0093AD;}
</style>
<g>
	<path class="st0" d="M51.4,168.2c-11.2,9.7-19.8,21.3-25.8,34.7c-9.8,21.5-13.7,43.6-5.2,66.6c6.2,16.7,18.3,28.4,33.5,37.1
		c16.5,9.4,34.6,14,52.8,18.4c16.4,4,32.9,7.8,47.3,17c6.8,4.3,13.5,9.3,18.6,15.4c9.8,11.7,5.8,22.4-8.9,26.3
		c-17.8,4.8-35.8,4.2-53.2-0.8c-11.9-3.4-22.8-7-32.9,3.4c-0.6,0.6-1.7,0.8-2.6,1.2c-12.7,5-13.9,4.2-19.1-8.3
		c-2.3-5.6-6.2-10.7-9.4-16c-1.1-1.8-2.3-3.7-3.4-5.5c1.9-1,3.8-2,6.2-3.2c-3.7-4.5-7.8-9.1-11.5-14C15,311.3,2,278.8,5.7,241.1
		c2.3-23.4,10.4-44.5,27-61.6c5-5.1,11.3-8.9,17-13.3C50.3,166.9,50.9,167.6,51.4,168.2 M142.2,361.1c2.5-3.7,5.1-6,4.9-7.9
		c-0.2-2-3.4-5-5.2-4.9c-1.8,0.1-4.8,3.2-5,5.1C136.7,355.3,139.5,357.5,142.2,361.1"/>
	<path class="st0" d="M160.1,244c1.8,1.5,3.4,2.8,5,4c35.2,28.7,53.2,65.2,49.3,111.1c-2.1,24.8-10.1,47.6-27.1,66.5
		c-3.7,4.1-8.5,7.3-12.7,10.9c-0.5-0.4-0.9-0.9-1.4-1.3c1.2-1.4,2.4-2.8,3.7-4.1c29.7-30,35.3-82.5,12.3-116.8
		c-10.6-15.7-25.1-26.9-43-32.8c-19.5-6.4-39.5-11.5-59.3-16.9c-11.2-3-22.2-6.2-31.6-13.3c-7.1-5.4-12.4-12.2-14.3-21.1
		c-2.2-10.1,1.2-16,11.3-18.8c13.8-4,27.7-2.7,41.4,0.6c7.3,1.8,14.4,4.6,21.7,6.5c2.3,0.6,5.2,0.1,7.6-0.7c7-2.4,13.9-5.5,21-7.8
		c3.6-1.2,5.4,0.9,7.1,4.4c3.4,7.1,7.3,14,11.9,20.4C167.4,240.7,167.7,241.2,160.1,244 M78.4,231.7c0.8,0,1.6,0,2.4,0
		c1.4-2,4.1-4.2,3.9-6.1c-0.2-2-3.3-5-5.1-5c-1.8,0-4.8,3-5.1,5C74.3,227.5,77,229.7,78.4,231.7"/>
	<path class="st0" d="M181.5,389c-1.4,6.5-2.2,13.1-4.1,19.3c-12.2,39.6-44.6,56.5-86.6,45.3c-11.3-3-22.3-7.2-33.6-10.3
		c-6.1-1.7-12.6-2.6-18.9-3.1c-9.2-0.7-17.5,2.1-25.4,9.9c-0.3-5.8-0.5-9.8-0.7-13.8c-0.1-3.4,0-6.8-0.4-10.2
		c-1.2-11.1,2.1-19.8,14.2-24.7c-13.3-5.3-14.9-15.6-14.6-26.9c0.3-10,0.1-20,0.1-29.9c6-0.3,7.8,1.8,10.1,8.5
		c4.6,13.6,8.8,27.4,14.9,40.3c9.6,20.3,24.2,36.4,44.8,46.4c25.7,12.5,53.7,9.5,73.2-8c11.8-10.5,18.4-24.2,23.4-38.9
		c0.5-1.5,1.1-2.9,1.6-4.3C180.2,388.7,180.9,388.9,181.5,389"/>
	<path class="st0" d="M197.3,161c0,10.5,1,21.2-0.4,31.5c-0.7,4.7-6.1,8.7-9.7,13.4c11.3,3.7,11.7,14.1,11.5,25
		c-0.2,8.4,0,16.9,0,25.5c-5.7-0.1-7.9-3.5-9.6-7.8c-5.4-13.3-10.6-26.7-16.7-39.7c-6.4-13.4-14.7-25.6-26.8-34.6
		c-34.2-25.5-85.5-11.4-102,28.1c-0.7,1.7-1.4,3.3-3.4,4.8c0.2-2,0.1-4.1,0.6-6.1c6.9-29.8,33.4-49.1,65.7-48
		c15.9,0.5,31,3.8,45.2,11.4c5.6,2.9,12,4.8,18.2,5.8c10.2,1.7,19.5-1,26.1-10.1C196.3,160.3,196.8,160.7,197.3,161"/>
</g>
</svg>
